<svg width="17" height="17" viewBox="0 0 17 17" fill="none" xmlns="http://www.w3.org/2000/svg">
<path d="M13.55 15.5H7.54999C7.28477 15.5 7.03042 15.3946 6.84288 15.2071C6.65534 15.0196 6.54999 14.7652 6.54999 14.5V13H7.54999V14.5H13.55V2.5H7.54999V4H6.54999V2.5C6.54999 2.23478 6.65534 1.98043 6.84288 1.79289C7.03042 1.60536 7.28477 1.5 7.54999 1.5H13.55C13.8152 1.5 14.0696 1.60536 14.2571 1.79289C14.4446 1.98043 14.55 2.23478 14.55 2.5V14.5C14.55 14.7652 14.4446 15.0196 14.2571 15.2071C14.0696 15.3946 13.8152 15.5 13.55 15.5Z" fill="#F2F2F2" stroke="#F2F2F2" stroke-width="0.5"/>
<path d="M7.84499 10.795L9.63499 9H2.54999V8H9.63499L7.84499 6.205L8.54999 5.5L11.55 8.5L8.54999 11.5L7.84499 10.795Z" fill="#F2F2F2" stroke="#F2F2F2" stroke-width="0.5"/>
</svg>
